# xmcd
#
# Track frame offsets:
#	150
#	21205
#	38910
#	57652
#	76180
#	94537
#	108507
#	128377
#	147262
#	165020
#
# Disc length: 2448 seconds
#
# Revision: 4
# Processed by: cddbd v1.5.2PL0 Copyright (c) Steve Scherf et al.
# Submitted via: EasyCDDAExtractor 15.3.0.1
#
DISCID=71098e0a
DTITLE=Ednita Nazario - Lo Que Son Las Cosas (Mexico Edition)
DYEAR=1991
DGENRE=Latin
TTITLE0=Lo Que Son Las Cosas
TTITLE1=Imposible
TTITLE2=Despues De Tanto
TTITLE3=Que No Acabe El Amor
TTITLE4=Por Ti Me Casare
TTITLE5=Invitame A Bailar
TTITLE6=Ahora Es Tarde Ya
TTITLE7=Mas Que Un Amigo
TTITLE8=Eres Libre
TTITLE9=Room Enough
EXTD=
EXTT0=
EXTT1=
EXTT2=
EXTT3=
EXTT4=
EXTT5=
EXTT6=
EXTT7=
EXTT8=
EXTT9=
PLAYORDER=
